<svg width="15" height="21" xmlns="http://www.w3.org/2000/svg">
  <g fill="none" fill-rule="evenodd">
    <path d="M14.846 9.07L10.69 4.886l-.102-.102L5.804 0l-2.1 2.085 3.077 3.077L.03 11.9 4.2 16.07c.058.06.117.117.175.161L9.1 21l2.07-2.07-3.105-3.107 6.78-6.752zM6.198 13.52a.415.415 0 01-.19 0c-.058-.015-.116-.044-.218-.16l-1.225-1.226c-.103-.102-.146-.16-.16-.218a.415.415 0 010-.19c.014-.058.043-.117.16-.219l3.85-3.85c.102-.102.16-.146.218-.16a.415.415 0 01.19 0c.058.014.117.044.219.16l1.225 1.225c.102.102.146.16.16.219a.415.415 0 010 .19c-.014.058-.044.116-.16.218l-3.85 3.85c-.102.117-.16.146-.22.16z" fill="#0B3BE0"/>
    <path d="M11.069 1.896c0-.525.175-.963.554-1.342A1.83 1.83 0 0112.95 0c.525 0 .977.19 1.342.554.364.365.554.817.554 1.342 0 .525-.19.962-.554 1.327a1.838 1.838 0 01-1.342.554c-.525 0-.962-.175-1.327-.554a1.806 1.806 0 01-.554-1.327zm.32 0c0 .437.146.817.453 1.123.306.306.67.466 1.123.466.437 0 .816-.16 1.108-.466.306-.307.467-.686.467-1.123 0-.452-.16-.817-.467-1.123a1.51 1.51 0 00-1.108-.467c-.438 0-.817.16-1.109.467-.306.306-.466.67-.466 1.123zm2.013 1.035l-.51-.904h-.336v.904h-.306V.861h.846c.423 0 .656.247.656.583 0 .291-.219.51-.51.569l.51.918h-.35zm-.846-1.794v.628h.482c.262 0 .408-.102.408-.307 0-.218-.131-.32-.409-.32h-.48z" fill="#1849D6"/>
  </g>
</svg>
